<?xml version="1.0" encoding="utf-8"?>
<!-- Generator: Adobe Illustrator 27.6.0, SVG Export Plug-In . SVG Version: 6.00 Build 0)  -->
<svg version="1.1" id="Layer_1" xmlns="http://www.w3.org/2000/svg" xmlns:xlink="http://www.w3.org/1999/xlink" x="0px" y="0px"
	 viewBox="0 0 1001.6 419.5" style="enable-background:new 0 0 1001.6 419.5;" xml:space="preserve">
<style type="text/css">
	.st0{fill:#85FFD3;}
</style>
<g>
	<path class="st0" d="M296.2,151.8H327l-11.7,23.6h-31c-10.9,22.4-24.9,52.8-42.2,91.3c-7.9,17.7-17.3,34.5-28,49.9
		c-10.9,15.4-22.1,27.8-33.9,36.9c-10.9,8.4-24.1,14.9-39.7,19.6c-15.8,4.7-33.2,4.9-52.5,0.9c-16.4-4.2-30.4-12.6-42-25.2
		c-11.5-12.4-18.4-27-20.1-43.4c-0.9-11.7,0.4-22,3.5-31s7.2-16.3,12.1-21.9s9.3-9.1,13.5-10.5c7,7.2,16.3,13.5,27.7,18.5
		c11.4,5.2,24.7,8,39.7,8.6c15.1,0.9,32-4.4,50.6-16.1c18.6-11.6,37.1-32.7,55.8-63.2c3-5.1,5.9-10,8.9-14.7h-28.5l12.2-23.6h31.1
		c15-23.1,28.2-41.5,39.7-54.9c-25.4-1.9-49.7-2.4-72.8-1.1c-23.3,1.2-43.7,6.7-61.2,16.6s-30.6,27-38.8,51.1
		c-16.6-0.9-29.6-6.8-38.8-17.7c-9.3-10.9-13.3-23.8-12.4-39s8.2-29.8,22.2-43.7c13.5-12.1,30.3-18.9,50.2-20.5
		c20.1-1.6,41.1-0.2,63.2,4c22.1,4.4,43,9.1,62.6,14.5c16.3,4.4,30.5,7.7,42.2,10c2.5,0.3,4.9,0.7,7.2,1.1
		c12.1-10.5,23.3-18.7,33.8-24.3C367.6,37.5,382.5,33,394,34s18.7,4.9,21.4,11c2.3,5.6,1.8,11.5-1.6,17.9c-3.5,6.5-9.5,12.6-18.4,18
		c-7.7,4.9-17,8.9-27.8,12.1c-10.9,3-23.8,4.7-38.8,5.1c-1.4,1.8-2.6,3.3-3.9,5.1C317.5,112.6,307.9,128.9,296.2,151.8z M390.2,55.9
		c-0.7-1.9-4.2-1.8-10.5,0.3c-8.4,3.2-17.1,8.4-26.2,16.3c15.2-1.9,25.7-5.1,31.3-9.3C388.9,60.1,390.7,57.7,390.2,55.9z"/>
	<path class="st0" d="M379.5,241.4c1,0,1.9,0.2,3.1,0.4c1,0.4,1.9,0.9,2.6,1.4s0.9,1.2,0.5,1.9c-4.2,11-10.3,23.8-18.4,38.5
		c-7.9,14.7-17.3,27.6-28.4,38.7c-10.9,11-22.8,16.8-35.7,17c-14-0.7-22.8-6.6-26.2-17.7s-3.1-25,0.9-42.2
		c4-17.1,10.1-35.3,18.5-54.4s17.3-37.1,27-54.1l46.9,0.4c-12.2,19.2-21.7,37.8-28.7,55.3c-6.8,17.5-11,32.2-12.6,43.6
		c-1.6,11.5-0.4,18,3.7,19.2c3.9,0.4,8.9-2.6,15.4-8.9c6.3-6.3,12.4-13.3,18.2-21c5.8-7.7,9.5-13.5,11.4-17.3
		C378.1,241.6,378.6,241.4,379.5,241.4z M337,142.4c-5.6-5.4-7.7-12.1-6.6-20.1c1.4-7.9,5.8-14.5,13-20c7.2-5.4,15.4-8.2,24.5-8.2
		s16.5,2.8,21.9,8.2c5.4,5.4,7.7,12.1,6.6,19.9c-1.4,8.1-5.8,14.7-13,20.1c-7.2,5.4-15.4,8.1-24.5,8.1S342.4,147.8,337,142.4z"/>
	<path class="st0" d="M509.9,241c1.8,0.4,3.2,0.7,4.4,1.4c1,0.7,1.4,1.4,1,2.3c-0.2,0.4-0.7,1.2-1.4,2.8c-2.1,4.6-6,11.9-11.9,22.1
		c-6,10.3-13.8,21-23.6,32.4c-9.8,11.2-21.4,20.6-35,28.4c-13.5,7.7-28.9,11.4-46,10.9c-20-1.4-33.8-8.4-41.5-20.6
		c-7.7-12.4-10.5-27.5-8.2-45c2.1-17.7,8.2-35,18.2-52.3c9.8-17.3,22.6-31.5,38-42.9c15.4-11.2,32.4-16.8,50.9-16.4
		c12.1,0.7,21.4,4.2,28,10.5c6.6,6.1,10.7,13.8,12.1,22.8c1.4,9.1,0,18-4,26.8c-6,12.2-14.2,20.8-24.7,26.1
		c-10.5,5.1-21.2,7.4-32.2,6.6c-11-0.9-20.5-4-28.4-9.8c-2.8,10.7-3.1,20.3-1,28.7c1.9,8.4,7,13.8,15.4,16.1
		c11.2,2.3,22.2,0.9,33.1-4c11-4.9,21-11.7,30.1-20.3c9.3-8.6,16.8-17.1,22.9-25.9C506.9,240.9,508.3,240.9,509.9,241z M422.7,210.6
		c-6.8,8.8-12.1,19.1-15.8,31c16.1-5.1,27.5-11,34.1-17.9c6.6-6.8,10-12.9,10-18.2c-0.2-5.2-2.3-8.1-6.3-8.4
		C437.1,197.3,429.7,201.8,422.7,210.6z"/>
	<path class="st0" d="M560.3,184.9c-13,29.1-21.3,53.4-25.5,73c-4.2,19.4-3.7,29.8,1.9,30.8c3.8-0.2,8.6-3.3,14.5-9.5
		c5.8-6.3,11.4-13,16.5-20.3c5.2-7.4,8.8-12.9,10.7-16.8c0.2-0.5,0.7-0.7,1.8-0.7c0.9,0,1.9,0.2,3,0.4c1,0.4,1.9,0.9,2.6,1.4
		c0.7,0.5,0.9,1.2,0.7,1.9c-3.2,8.1-7.5,17.5-12.8,28.3c-5.4,10.7-11.5,21.4-18.7,31.5c-7.2,10.3-15,18.7-23.6,25.2
		c-8.8,6.6-17.8,9.6-27.5,9.1c-13.6-1.4-22.2-7.7-25.7-18.9c-3.7-11.2-3.7-25.4,0-42.7c3.5-17.3,9.1-35.7,16.6-55.3
		c5.1-13.1,10-25.6,14.7-37.4h-20.8l5.2-13.3h21.2c4.2-10,8.2-19.2,12.1-28h53.7c-4.7,8.8-9.5,18-14.3,28h23.3l-5.4,13.3
		L560.3,184.9L560.3,184.9z"/>
	<path class="st0" d="M687,242.4c1-0.2,2.1,0,3,0.4c1,0.2,1.6,0.9,1.6,1.8c0.2,5.8-1.9,15.2-6.1,28.5c-4.2,13.1-11.5,26.4-22,40.1
		c-10.7,13.5-25.2,23.5-44.1,30.3c-11.4,4.5-22.8,5.6-34.1,3.3s-20.3-7.2-26.8-14.7c-5.6-7.4-8.8-14.9-9.6-22.8
		c-0.9-7.7-0.5-14,1.4-18.5c-1.6,1.6-3.5,2.1-5.8,1.6c-2.3-0.4-4.2-1.6-5.2-3.7c-1.2-2.1-1-5.1,0.9-8.8
		c12.4-17.7,22.9-34.8,31.5-51.4c6.8-12.8,13.5-24.1,20.3-34.1c6.7-10,14.3-17.9,23.1-23.4c7-3.9,13.8-5.4,20.3-4.7
		c6.7,0.7,11.2,1.8,14.2,3.3c0.9,0.5,1.2,1.2,1.2,2.1c-0.2,0.7-0.7,1.2-1.6,1.6c-1,0.2-2.8,0.9-5.2,2.1s-4.7,3.1-6.5,6.1
		c-1.9,2.8-2.5,6.8-1.9,11.9c1.2,5.8,3.3,12.6,6.5,20.6c4,9.8,7.7,21.4,10.7,34.6c3.2,13.1,3.7,28.2,1.6,45.1v0.2
		c-0.2,0.2-0.2,0.4-0.2,0.4c6.1-5.6,11.9-12.4,17.2-20.8c5.4-8.2,10-18.2,13.7-29.8C685,243,685.9,242.6,687,242.4z M607.3,275
		c2.8-8.2,3.5-18.4,1.9-30.3c-1-8.1-2.3-14.4-3.7-19.1s-2.6-8.2-3.7-10.3c-1.2-2.1-1.8-3.1-1.8-3.1s-2.6,4.6-7.7,13.5
		c-5.2,8.9-11.5,20.3-18.7,34.5c-2.6,12.1-1.6,20.5,2.8,24.9c4.5,4.4,9.5,6,15,4.9C599.3,288.5,604.5,283.4,607.3,275z"/>
	<path class="st0" d="M814.9,241c1.8,0.4,3.2,0.7,4.4,1.4c1,0.7,1.4,1.4,1,2.3c-0.2,0.4-0.7,1.2-1.4,2.8c-2.1,4.6-6,11.9-11.9,22.1
		c-6,10.3-13.8,21-23.6,32.4c-9.8,11.2-21.3,20.6-35,28.4c-13.5,7.7-28.9,11.4-46,10.9c-20-1.4-33.8-8.4-41.5-20.6
		c-7.7-12.4-10.5-27.5-8.2-45c2.1-17.7,8.2-35,18.2-52.3c9.8-17.3,22.6-31.5,38-42.9c15.4-11.2,32.4-16.8,50.9-16.4
		c12.1,0.7,21.3,4.2,28,10.5c6.7,6.1,10.7,13.8,12.1,22.8c1.4,9.1,0,18-4,26.8c-6,12.2-14.2,20.8-24.7,26.1
		c-10.5,5.1-21.2,7.4-32.2,6.6c-11-0.9-20.5-4-28.3-9.8c-2.8,10.7-3.2,20.3-1,28.7c1.9,8.4,7,13.8,15.4,16.1
		c11.2,2.3,22.2,0.9,33.1-4c11-4.9,21-11.7,30.1-20.3c9.3-8.6,16.8-17.1,22.9-25.9C811.9,240.9,813.3,240.9,814.9,241z M727.7,210.6
		c-6.8,8.8-12.1,19.1-15.8,31c16.1-5.1,27.5-11,34.1-17.9c6.7-6.8,10-12.9,10-18.2c-0.2-5.2-2.3-8.1-6.3-8.4
		C742.1,197.3,734.7,201.8,727.7,210.6z"/>
	<path class="st0" d="M970.4,241.6c1.2,0.2,2.5,0.5,3.7,1.1c1,0.5,1.6,1.2,1.8,1.9c-1.9,5.9-5.8,14.7-11.5,26.4
		c-5.6,11.5-13,23.3-21.9,35.2s-19.1,21.4-30.3,28.2c-11.4,7-23.5,8.8-36.6,5.2c-10.3-3.3-15.9-9.8-17.2-19.2
		c-1-9.3,0.5-20,4.5-31.9s8.6-23.3,13.7-34.3c4.2-9.4,7.3-17.5,9.5-23.8c2.1-6.5,1.8-10.5-0.9-11.7c-4-1.1-10.7,3.7-19.8,14
		c-9.3,10.5-18.5,25-27.8,43.7c-9.3,18.5-15.9,39.5-20.1,63h-50.2c1.6-22,7.3-48.5,17.2-79.4c9.8-31,23.1-60.4,39.7-88.4l43.6,0.2
		c-11,19.4-21.3,41.8-30.6,67c8.6-17,18.4-31.3,29.6-43.2c11-11.7,23.6-19.4,37.4-23.4c16.3-4,28.5-1.8,36.6,6.8
		c8.2,8.6,9.1,21.7,2.8,39.2c-1.6,4-3.2,7.7-4.7,11.6c-7,16.8-12.2,30.8-15.6,42.2c-3.3,11.4-2.5,17.7,2.6,19.2c4,1,9.5-2.3,16.5-10
		c6.8-7.5,15.4-20.6,25.4-39.2C968.3,241.6,969.2,241.4,970.4,241.6z"/>
</g>
</svg>
